<svg width="97" height="8" viewBox="0 0 59 60" fill="none" xmlns="http://www.w3.org/2000/svg">
<g id="Frame 1171278580">
<path id="Vector 33" d="M36.9506 34.7955L47.1415 48.8815" stroke="#0BAA45" stroke-width="5.53338"/>
<path id="Vector 34" d="M46.4242 11.8831C16.5534 -0.256522 13.3374 34.44 15.1119 54.296C25.2582 53.8004 33.1797 52.4055 39.2865 50.3869C52.2861 46.0899 57.0628 38.9668 57.5723 31.6762C57.9515 26.2494 55.2832 21.0489 52.2893 16.6619C50.8417 14.5408 48.8032 12.85 46.4242 11.8831Z" stroke="#036683" stroke-width="5.53338"/>
<path id="Ellipse 15" d="M44.2628 26.9988C44.157 33.1514 39.0835 38.0534 32.9308 37.9476C30.8261 37.9114 28.8756 37.2967 27.2187 36.2591C24.0099 34.2496 21.9123 30.6648 21.982 26.6156C22.0516 22.5664 24.2712 19.0559 27.5472 17.1579C29.2388 16.1779 31.2093 15.6306 33.314 15.6668C39.4666 15.7726 44.3686 20.8461 44.2628 26.9988Z" stroke="#0BAA45" stroke-width="5.53338"/>
</g>
</svg>
